<?xml version="1.0" encoding="utf-8"?>
<!-- Generator: Adobe Illustrator 22.0.1, SVG Export Plug-In . SVG Version: 6.00 Build 0)  -->
<svg version="1.1" id="Layer_1" xmlns="http://www.w3.org/2000/svg" xmlns:xlink="http://www.w3.org/1999/xlink" x="0px" y="0px"
	 viewBox="0 0 392.9 54.4" style="enable-background:new 0 0 392.9 54.4;" xml:space="preserve">
<style type="text/css">
	.st0{fill:#981B1E;}
	.st1{fill:none;stroke:#981B1E;stroke-width:1.0256;}
</style>
<g>
	<path class="st0" d="M54.2,12.8c0-6.6,0-7.7-0.1-9.1c-0.1-1.4-0.4-2.1-1.8-2.4c-0.3-0.1-1-0.1-1.4-0.1c-0.2,0-0.3-0.1-0.3-0.3
		c0-0.3,0.2-0.3,0.7-0.3c1.9,0,4.5,0.1,4.7,0.1c0.5,0,3.7-0.1,5-0.1c2.6,0,5.5,0.3,7.7,1.8c1.1,0.8,2.9,2.8,2.9,5.7
		c0,3.1-1.3,6.2-5.1,9.7c3.4,4.4,6.3,8.1,8.7,10.8c2.3,2.4,4.1,2.9,5.1,3c0.8,0.1,1.4,0.1,1.6,0.1c0.2,0,0.4,0.1,0.4,0.3
		c0,0.3-0.3,0.3-1,0.3h-3c-2.4,0-3.4-0.2-4.5-0.8c-1.8-1-3.3-3-5.7-6.2c-1.8-2.3-3.7-5.1-4.6-6.2c-0.2-0.2-0.3-0.3-0.5-0.3l-5.2-0.1
		c-0.2,0-0.3,0.1-0.3,0.3v1c0,4,0,7.3,0.2,9.1c0.1,1.2,0.4,2.1,1.6,2.3c0.6,0.1,1.5,0.2,1.9,0.2c0.3,0,0.3,0.1,0.3,0.3
		c0,0.2-0.2,0.3-0.7,0.3c-2.3,0-5-0.1-5.2-0.1c0,0-2.7,0.1-3.9,0.1c-0.5,0-0.7-0.1-0.7-0.3c0-0.1,0.1-0.3,0.3-0.3
		c0.4,0,0.9-0.1,1.3-0.2c0.8-0.2,1.1-1.1,1.2-2.3c0.2-1.8,0.2-5.1,0.2-9.1V12.8z M57.6,16.4c0,0.2,0.1,0.4,0.3,0.5
		c0.6,0.4,2.6,0.7,4.4,0.7c1,0,2.2-0.1,3.1-0.8c1.5-1,2.6-3.3,2.6-6.5c0-5.2-2.8-8.4-7.3-8.4c-1.3,0-2.4,0.1-2.8,0.3
		c-0.2,0.1-0.3,0.3-0.3,0.5V16.4z"/>
	<path class="st0" d="M98.3,0c9.5,0,16.5,6,16.5,15.8c0,9.4-6.6,17.2-16.8,17.2c-11.5,0-16.3-8.9-16.3-16.5C81.8,9.6,86.7,0,98.3,0z
		 M99.2,31.3c3.8,0,11.6-2.2,11.6-14.4c0-10.1-6.1-15.5-12.8-15.5c-7,0-12.3,4.6-12.3,13.8C85.7,25,91.6,31.3,99.2,31.3z"/>
	<path class="st0" d="M122.3,31.8c-0.6-0.3-0.6-0.5-0.6-1.6c0-2.1,0.2-3.8,0.2-4.5c0-0.5,0.1-0.7,0.3-0.7c0.3,0,0.3,0.1,0.3,0.5
		c0,0.4,0,1,0.1,1.6c0.6,3.1,3.4,4.3,6.2,4.3c4,0,6-2.9,6-5.6c0-2.9-1.2-4.6-4.8-7.6l-1.9-1.6c-4.5-3.7-5.5-6.3-5.5-9.1
		c0-4.5,3.4-7.6,8.7-7.6c1.6,0,2.9,0.2,3.9,0.4c0.8,0.2,1.1,0.2,1.5,0.2c0.3,0,0.4,0.1,0.4,0.3S137,2.5,137,5.4c0,0.7-0.1,1-0.3,1
		c-0.3,0-0.3-0.2-0.3-0.5c0-0.5-0.3-1.6-0.5-2.1c-0.3-0.5-1.4-2.2-5.2-2.2c-2.9,0-5.2,1.8-5.2,4.9c0,2.4,1.1,3.9,5.1,7.1l1.2,0.9
		c5,3.9,6.1,6.5,6.1,9.9c0,1.7-0.7,4.9-3.6,7c-1.8,1.3-4.1,1.8-6.3,1.8C125.9,32.9,124,32.6,122.3,31.8z"/>
	<path class="st0" d="M148.9,12.8c0-6.6,0-7.7-0.1-9.1c-0.1-1.4-0.4-2.1-1.8-2.4c-0.3-0.1-1-0.1-1.4-0.1c-0.2,0-0.3-0.1-0.3-0.3
		c0-0.3,0.2-0.3,0.7-0.3c1,0,2.1,0,3,0l1.7,0.1c0.3,0,8.7,0,9.6,0c0.8,0,1.5-0.1,1.8-0.2c0.2,0,0.4-0.2,0.6-0.2
		c0.1,0,0.2,0.2,0.2,0.4c0,0.3-0.2,0.8-0.3,2c0,0.4-0.1,2.3-0.2,2.8c0,0.2-0.1,0.5-0.3,0.5c-0.3,0-0.3-0.2-0.3-0.5
		c0-0.3,0-1-0.3-1.5c-0.3-0.7-0.7-1.2-3-1.4c-0.7-0.1-5.3-0.1-5.8-0.1c-0.2,0-0.3,0.1-0.3,0.4v7.6c0,0.3,0,0.4,0.3,0.4
		c0.5,0,5.7,0,6.7-0.1c1-0.1,1.6-0.2,2-0.6c0.3-0.3,0.5-0.5,0.6-0.5c0.1,0,0.2,0.1,0.2,0.3c0,0.3-0.2,1-0.3,2.4
		c-0.1,0.8-0.2,2.4-0.2,2.7c0,0.3,0,0.8-0.3,0.8c-0.2,0-0.3-0.2-0.3-0.4c0-0.4,0-0.8-0.2-1.4c-0.2-0.6-0.5-1.3-2.2-1.5
		c-1.1-0.1-5.3-0.2-6-0.2c-0.2,0-0.3,0.1-0.3,0.3v3.7c0,1.4,0,10.3,0,11.2c0.1,2.9,0.8,3.4,4.9,3.4c1.1,0,2.9,0,4-0.5
		c1.1-0.5,1.6-1.3,1.9-3c0.1-0.5,0.2-0.6,0.4-0.6c0.3,0,0.3,0.3,0.3,0.6c0,0.3-0.3,3.2-0.5,4.1c-0.3,1.1-0.6,1.1-2.3,1.1
		c-3.1,0-5.5-0.1-7.1-0.1c-1.6-0.1-2.6-0.1-3.3-0.1c-0.1,0-0.8,0-1.7,0c-0.8,0-1.8,0.1-2.4,0.1c-0.5,0-0.7-0.1-0.7-0.3
		c0-0.1,0.1-0.3,0.3-0.3c0.4,0,0.9-0.1,1.3-0.2c0.8-0.2,1.1-1.1,1.2-2.3c0.2-1.8,0.2-5.1,0.2-9.1V12.8z"/>
	<path class="st0" d="M175.7,26.6c0.1,3.4,0.5,4.5,1.6,4.9c0.8,0.2,1.7,0.3,2.1,0.3c0.2,0,0.3,0.1,0.3,0.3c0,0.3-0.3,0.3-0.8,0.3
		c-2.4,0-4.1-0.1-4.5-0.1c-0.4,0-2.1,0.1-4,0.1c-0.4,0-0.7,0-0.7-0.3c0-0.2,0.1-0.3,0.3-0.3c0.3,0,1.1,0,1.7-0.3
		c1-0.3,1.3-1.5,1.3-5.3l0-24.1c0-1.6,0.1-2.1,0.5-2.1c0.3,0,1.1,0.9,1.5,1.3c0.6,0.7,6.9,7.5,13.4,14.4c4.2,4.5,8.7,9.6,10.1,11
		l-0.5-21.3c0-2.7-0.3-3.7-1.6-4c-0.8-0.2-1.7-0.2-2.1-0.2c-0.3,0-0.3-0.1-0.3-0.3c0-0.3,0.3-0.3,0.8-0.3c1.9,0,3.9,0.1,4.4,0.1
		s1.8-0.1,3.6-0.1c0.5,0,0.8,0,0.8,0.3c0,0.2-0.2,0.3-0.5,0.3c-0.2,0-0.5,0-1,0.1c-1.4,0.3-1.6,1.2-1.6,3.7l-0.1,24.6
		c0,2.8-0.1,3-0.4,3c-0.3,0-0.8-0.5-3.1-2.7c-0.5-0.4-6.5-6.6-11-11.4c-4.9-5.2-9.6-10.5-11-12.1L175.7,26.6z"/>
	<path class="st0" d="M214.3,12.8c0-6.6,0-7.7-0.1-9.1c-0.1-1.4-0.4-2.1-1.8-2.4c-0.3-0.1-1-0.1-1.4-0.1c-0.2,0-0.3-0.1-0.3-0.3
		c0-0.3,0.2-0.3,0.7-0.3c1.9,0,4.5,0.1,4.7,0.1c1,0,2.6-0.1,4.6-0.1c6.9,0,8.4,4.2,8.4,6.3c0,3.4-2,5.5-3.9,7.6
		c3.1,1,7.3,3.9,7.3,8.9c0,4.5-3.5,9.2-10.7,9.2c-0.5,0-1.8-0.1-3-0.1c-1.2-0.1-2.4-0.1-2.6-0.1c-0.1,0-0.8,0-1.7,0
		c-0.8,0-1.8,0.1-2.4,0.1c-0.5,0-0.7-0.1-0.7-0.3c0-0.1,0.1-0.3,0.3-0.3c0.4,0,0.9-0.1,1.3-0.2c0.8-0.2,1-1.1,1.2-2.3
		c0.2-1.8,0.2-5.1,0.2-9.1V12.8z M217.7,13.7c0,0.3,0.1,0.4,0.3,0.5c0.3,0,1,0.2,2.6,0.2c2.4,0,2.9-0.1,3.8-1.1
		c0.9-1,1.5-2.5,1.5-4.2c0-3.5-1.6-7.2-5.7-7.2c-0.5,0-1.3,0-2,0.2c-0.4,0.1-0.5,0.2-0.5,0.5V13.7z M217.7,18.1c0,3.2,0,8.4,0,9.1
		c0.1,2.1,0.1,2.6,1.4,3.3c1.1,0.5,2.9,0.6,3.7,0.6c2.3,0,5.9-1.2,5.9-6c0-2.5-0.8-6.2-4.1-8.4c-1.4-1-2.5-1.1-3.5-1.2
		c-0.5-0.1-2.6-0.1-3.3-0.1c-0.2,0-0.3,0.1-0.3,0.3V18.1z"/>
	<path class="st0" d="M246.1,20.2c0,6.2,0.2,8.9,0.9,9.6c0.7,0.7,1.8,1,5,1c2.2,0,4.1,0,5.1-1.3c0.5-0.7,1-1.7,1.1-2.5
		c0-0.3,0.1-0.5,0.4-0.5c0.2,0,0.3,0.2,0.3,0.6c0,0.5-0.3,3-0.6,4.2c-0.3,1-0.4,1.1-2.6,1.1c-3,0-5.2-0.1-7-0.1
		c-1.8-0.1-3.1-0.1-4.3-0.1c-0.2,0-0.9,0-1.7,0c-0.8,0-1.8,0.1-2.4,0.1c-0.5,0-0.7-0.1-0.7-0.3c0-0.1,0.1-0.3,0.3-0.3
		c0.4,0,0.9-0.1,1.3-0.2c0.8-0.2,1-1.1,1.2-2.3c0.2-1.8,0.2-5.1,0.2-9.1v-7.4c0-6.6,0-7.7-0.1-9.1c-0.1-1.4-0.4-2.1-1.8-2.4
		c-0.3-0.1-1-0.1-1.4-0.1c-0.2,0-0.3-0.1-0.3-0.3c0-0.3,0.2-0.3,0.7-0.3c1.9,0,4.5,0.1,4.7,0.1c0.2,0,3.3-0.1,4.5-0.1
		c0.5,0,0.7,0.1,0.7,0.3c0,0.2-0.2,0.3-0.3,0.3c-0.3,0-0.9,0-1.4,0.1c-1.2,0.2-1.6,0.9-1.6,2.4c-0.1,1.3-0.1,2.5-0.1,9.1V20.2z"/>
	<path class="st0" d="M273.9,1.6c0.5-1.4,0.7-1.6,0.9-1.6c0.3,0,0.4,0.2,0.9,1.5c0.6,1.6,7.2,18.9,9.8,25.3c1.5,3.7,2.7,4.4,3.6,4.7
		c0.6,0.2,1.3,0.3,1.7,0.3c0.3,0,0.4,0,0.4,0.3c0,0.3-0.4,0.3-0.8,0.3c-0.6,0-3.7,0-6.6-0.1c-0.8,0-1.3,0-1.3-0.3
		c0-0.2,0.1-0.3,0.3-0.3c0.3-0.1,0.5-0.5,0.3-1.1l-3.9-10.3c-0.1-0.2-0.2-0.3-0.4-0.3h-9c-0.2,0-0.3,0.1-0.4,0.3l-2.5,7.4
		c-0.4,1.1-0.6,2.1-0.6,2.8c0,0.8,0.9,1.2,1.6,1.2h0.4c0.3,0,0.4,0.1,0.4,0.3c0,0.3-0.3,0.3-0.6,0.3c-1,0-2.8-0.1-3.3-0.1
		c-0.5,0-2.8,0.1-4.7,0.1c-0.5,0-0.8-0.1-0.8-0.3c0-0.2,0.2-0.3,0.4-0.3c0.3,0,0.9,0,1.2-0.1c1.9-0.3,2.8-1.8,3.5-3.9L273.9,1.6z
		 M278.2,18.4c0.2,0,0.2-0.1,0.2-0.3l-4-11.3c-0.2-0.6-0.4-0.6-0.6,0l-3.7,11.3c-0.1,0.2,0,0.3,0.1,0.3H278.2z"/>
	<path class="st0" d="M303.2,20.2c0,4,0,7.3,0.2,9.1c0.1,1.2,0.4,2.1,1.6,2.3c0.6,0.1,1.5,0.2,1.9,0.2c0.3,0,0.3,0.1,0.3,0.3
		c0,0.2-0.2,0.3-0.7,0.3c-2.3,0-5-0.1-5.2-0.1c-0.2,0-2.9,0.1-4.1,0.1c-0.5,0-0.7-0.1-0.7-0.3c0-0.1,0.1-0.3,0.3-0.3
		c0.4,0,0.9-0.1,1.3-0.2c0.8-0.2,1-1.1,1.2-2.3c0.2-1.8,0.2-5.1,0.2-9.1V2.4l-6.2,0.1c-2.6,0-3.6,0.3-4.3,1.3
		c-0.5,0.7-0.6,1-0.7,1.3c-0.1,0.3-0.3,0.4-0.4,0.4c-0.1,0-0.2-0.1-0.2-0.4c0-0.4,0.8-4,0.9-4.4c0.1-0.3,0.3-0.8,0.4-0.8
		c0.3,0,0.7,0.4,1.8,0.5c1.2,0.1,2.8,0.2,3.3,0.2h15.8c1.3,0,2.3-0.1,3-0.2c0.6-0.1,1-0.2,1.2-0.2c0.2,0,0.2,0.3,0.2,0.5
		c0,1.3-0.1,4.2-0.1,4.6c0,0.4-0.1,0.5-0.3,0.5c-0.2,0-0.3-0.1-0.3-0.7l0-0.5c-0.1-1.3-1.1-2.2-5.2-2.3l-5.3-0.1V20.2z"/>
	<path class="st0" d="M332.7,20.2c0,4,0,7.3,0.2,9.1c0.1,1.2,0.4,2.1,1.6,2.3c0.6,0.1,1.5,0.2,1.9,0.2c0.3,0,0.3,0.1,0.3,0.3
		c0,0.2-0.2,0.3-0.7,0.3c-2.3,0-5-0.1-5.2-0.1c-0.2,0-2.9,0.1-4.1,0.1c-0.5,0-0.7-0.1-0.7-0.3c0-0.1,0.1-0.3,0.3-0.3
		c0.4,0,0.9-0.1,1.3-0.2c0.8-0.2,1-1.1,1.2-2.3c0.2-1.8,0.2-5.1,0.2-9.1V2.4L323,2.5c-2.6,0-3.6,0.3-4.3,1.3c-0.5,0.7-0.6,1-0.7,1.3
		c-0.1,0.3-0.3,0.4-0.4,0.4c-0.1,0-0.2-0.1-0.2-0.4c0-0.4,0.8-4,0.9-4.4c0.1-0.3,0.3-0.8,0.4-0.8c0.3,0,0.7,0.4,1.8,0.5
		c1.2,0.1,2.8,0.2,3.3,0.2h15.8c1.3,0,2.3-0.1,3-0.2c0.6-0.1,1-0.2,1.2-0.2c0.2,0,0.2,0.3,0.2,0.5c0,1.3-0.1,4.2-0.1,4.6
		c0,0.4-0.1,0.5-0.3,0.5c-0.2,0-0.3-0.1-0.3-0.7l0-0.5c-0.1-1.3-1.1-2.2-5.2-2.3l-5.3-0.1V20.2z"/>
</g>
<g>
	<path class="st0" d="M19.7,53.7c-0.3-0.2-0.4-0.3-0.4-0.9c0-1.2,0.1-2.1,0.1-2.5c0-0.3,0.1-0.4,0.2-0.4c0.1,0,0.2,0.1,0.2,0.3
		c0,0.2,0,0.5,0.1,0.9c0.4,1.7,2.2,2.4,3.9,2.4c2.4,0,3.7-1.4,3.7-3.2c0-1.7-0.9-2.5-3.1-4.1l-1.1-0.8c-2.7-2-3.5-3.4-3.5-5.1
		c0-2.8,2.2-4.5,5.5-4.5c1,0,2,0.1,2.5,0.3c0.5,0.1,0.7,0.1,0.9,0.1c0.2,0,0.3,0,0.3,0.2c0,0.1-0.1,0.9-0.1,2.5c0,0.4,0,0.5-0.2,0.5
		c-0.2,0-0.2-0.1-0.2-0.3c0-0.3-0.2-0.9-0.4-1.2c-0.2-0.3-1-1.2-3.2-1.2c-1.8,0-3.3,0.9-3.3,2.6c0,1.5,0.8,2.4,3.2,4l0.7,0.5
		c3,2,4,3.7,4,5.7c0,1.4-0.5,2.9-2.3,4.1c-1,0.7-2.6,0.8-3.9,0.8C22.1,54.4,20.7,54.2,19.7,53.7z"/>
	<path class="st0" d="M45.9,43c0-3.7,0-4.4-0.1-5.1c-0.1-0.8-0.2-1.2-1-1.3c-0.2,0-0.6-0.1-0.8-0.1c-0.1,0-0.2-0.1-0.2-0.2
		c0-0.1,0.1-0.2,0.4-0.2c1.1,0,2.7,0.1,2.9,0.1c0.2,0,5.3,0,5.9,0c0.5,0,0.9-0.1,1.1-0.1c0.1,0,0.2-0.1,0.3-0.1
		c0.1,0,0.1,0.1,0.1,0.2c0,0.2-0.1,0.4-0.2,1.1c0,0.2-0.1,1.3-0.1,1.6c0,0.1-0.1,0.3-0.2,0.3c-0.1,0-0.2-0.1-0.2-0.3
		c0-0.2,0-0.6-0.1-0.8c-0.2-0.4-0.4-0.6-1.8-0.7c-0.4-0.1-3.3-0.1-3.6-0.1c-0.1,0-0.1,0.1-0.1,0.3v4.5c0,0.2,0,0.3,0.1,0.3
		c0.3,0,3.6,0,4.1-0.1c0.6-0.1,1-0.1,1.2-0.3c0.2-0.2,0.3-0.3,0.4-0.3c0.1,0,0.1,0.1,0.1,0.2c0,0.1-0.1,0.5-0.2,1.3
		c-0.1,0.5-0.1,1.4-0.1,1.5c0,0.2-0.1,0.4-0.2,0.4c-0.1,0-0.2-0.1-0.2-0.2c0-0.2,0-0.5-0.1-0.8c-0.1-0.3-0.3-0.6-1.3-0.7
		C51.4,43,48.8,43,48.3,43c-0.1,0-0.2,0.1-0.2,0.2v2c0,0.8,0,5.6,0,6.1c0.1,1.6,0.5,1.9,2.9,1.9c0.6,0,1.8,0,2.5-0.3
		c0.6-0.3,1-0.7,1.1-1.7c0.1-0.3,0.1-0.4,0.3-0.4s0.2,0.2,0.2,0.4c0,0.2-0.2,1.8-0.3,2.3c-0.2,0.6-0.4,0.6-1.4,0.6
		c-1.8,0-3.3-0.1-4.3-0.1c-1-0.1-1.7-0.1-2-0.1c-0.1,0-0.5,0-1.1,0c-0.5,0-1,0.1-1.4,0.1c-0.3,0-0.4-0.1-0.4-0.2
		c0-0.1,0.1-0.2,0.2-0.2c0.2,0,0.5-0.1,0.8-0.1c0.5-0.1,0.5-0.6,0.6-1.3c0.1-1,0.1-2.9,0.1-5.2V43z"/>
	<path class="st0" d="M71.6,51.8c-2.4-2.1-3-4.8-3-7.1c0-1.6,0.6-4.4,2.8-6.5c1.5-1.4,3.7-2.5,7.5-2.5c1,0,2.4,0.1,3.6,0.3
		c0.9,0.2,1.7,0.3,2.5,0.4c0.3,0,0.3,0.1,0.3,0.3c0,0.2-0.1,0.5-0.1,1.3c0,0.8,0,2.1-0.1,2.4c0,0.4-0.1,0.5-0.3,0.5
		c-0.2,0-0.2-0.2-0.2-0.5c0-0.9-0.4-1.9-1-2.4c-0.9-0.7-2.7-1.3-4.8-1.3c-3.2,0-4.7,0.8-5.5,1.7c-1.8,1.7-2.2,3.8-2.2,6.2
		c0,4.6,3.6,8.6,8.9,8.6c1.8,0,3.1-0.1,4.1-1.1c0.5-0.5,0.9-1.5,1-2c0.1-0.3,0.1-0.3,0.3-0.3c0.1,0,0.2,0.2,0.2,0.3
		s-0.3,2.2-0.6,3.1c-0.1,0.4-0.2,0.5-0.6,0.7c-1,0.4-2.9,0.5-4.5,0.5C76.1,54.4,73.6,53.5,71.6,51.8z"/>
	<path class="st0" d="M100.1,43c0-3.7,0-4.4-0.1-5.1c-0.1-0.8-0.2-1.2-1-1.3c-0.2,0-0.6-0.1-0.8-0.1c-0.1,0-0.2-0.1-0.2-0.2
		c0-0.1,0.1-0.2,0.4-0.2c1.1,0,2.6,0.1,2.8,0.1c0.2,0,1.8-0.1,2.5-0.1c0.3,0,0.4,0.1,0.4,0.2c0,0.1-0.1,0.2-0.2,0.2
		c-0.2,0-0.3,0-0.6,0.1c-0.6,0.1-0.8,0.5-0.8,1.3c-0.1,0.8-0.1,1.4-0.1,5.1v3.3c0,3.4,0.8,4.9,1.8,5.8c1.2,1.1,2.3,1.3,3.7,1.3
		c1.5,0,3-0.7,3.8-1.7c1.1-1.4,1.4-3.3,1.4-5.8v-3c0-3.7,0-4.4-0.1-5.1c0-0.8-0.2-1.2-1-1.3c-0.2,0-0.6-0.1-0.8-0.1
		c-0.1,0-0.2-0.1-0.2-0.2c0-0.1,0.1-0.2,0.4-0.2c1.1,0,2.5,0.1,2.7,0.1c0.2,0,1.3-0.1,2.1-0.1c0.3,0,0.4,0.1,0.4,0.2
		c0,0.1-0.1,0.2-0.2,0.2c-0.2,0-0.3,0-0.6,0.1c-0.7,0.1-0.8,0.5-0.9,1.3c-0.1,0.8,0,1.4,0,5.1v2.5c0,2.6-0.3,5.5-2.3,7.1
		c-1.8,1.5-3.7,1.7-5.2,1.7c-0.8,0-3.4-0.1-5.1-1.7c-1.2-1.1-2.2-2.8-2.2-6.2V43z"/>
	<path class="st0" d="M131.9,43c0-3.7,0-4.4-0.1-5.1c-0.1-0.8-0.2-1.2-1-1.3c-0.2,0-0.6-0.1-0.8-0.1c-0.1,0-0.2-0.1-0.2-0.2
		c0-0.1,0.1-0.2,0.4-0.2c1.1,0,2.8,0.1,2.9,0.1c0.3,0,2.3-0.1,3.1-0.1c1.6,0,3.3,0.1,4.6,1c0.6,0.4,1.7,1.6,1.7,3.2
		c0,1.8-0.7,3.5-3,5.4c2,2.5,3.7,4.7,5.2,6.2c1.3,1.3,2.1,1.6,2.7,1.7c0.5,0.1,0.7,0.1,0.9,0.1c0.1,0,0.2,0.1,0.2,0.2
		c0,0.1-0.1,0.2-0.6,0.2h-1.5c-1.4,0-2-0.1-2.6-0.5c-1.1-0.6-2-1.7-3.4-3.5c-1-1.3-2.1-2.8-2.7-3.5c-0.1-0.1-0.2-0.1-0.3-0.1
		l-3.1-0.1c-0.1,0-0.2,0.1-0.2,0.2v0.6c0,2.3,0,4.1,0.1,5.1c0.1,0.7,0.2,1.1,1,1.3c0.3,0.1,0.9,0.1,1.1,0.1c0.2,0,0.2,0.1,0.2,0.2
		c0,0.1-0.1,0.2-0.4,0.2c-1.3,0-2.9-0.1-3-0.1c0,0-1.7,0.1-2.4,0.1c-0.3,0-0.4-0.1-0.4-0.2c0-0.1,0.1-0.2,0.2-0.2
		c0.2,0,0.5-0.1,0.8-0.1c0.5-0.1,0.5-0.6,0.6-1.3c0.1-1,0.1-2.9,0.1-5.2V43z M134.1,45c0,0.1,0.1,0.2,0.2,0.3
		c0.4,0.2,1.6,0.4,2.7,0.4c0.6,0,1.3,0,1.8-0.4c0.8-0.6,1.5-1.8,1.5-3.6c0-3-1.6-4.7-4.3-4.7c-0.7,0-1.5,0.1-1.8,0.1
		c-0.1,0.1-0.2,0.1-0.2,0.3V45z"/>
	<path class="st0" d="M163.1,47.2c0,2.3,0,4.2,0.1,5.2c0.1,0.7,0.2,1.1,0.9,1.3c0.4,0.1,0.9,0.1,1.1,0.1c0.1,0,0.2,0.1,0.2,0.2
		c0,0.1-0.1,0.2-0.4,0.2c-1.4,0-3-0.1-3.1-0.1c-0.1,0-1.7,0.1-2.4,0.1c-0.3,0-0.4-0.1-0.4-0.2c0-0.1,0.1-0.2,0.2-0.2
		c0.2,0,0.5-0.1,0.8-0.1c0.5-0.1,0.6-0.6,0.6-1.3c0.1-1,0.1-2.9,0.1-5.2V43c0-3.7,0-4.4-0.1-5.1c-0.1-0.8-0.3-1.2-0.8-1.3
		c-0.3-0.1-0.6-0.1-0.8-0.1c-0.1,0-0.2-0.1-0.2-0.2c0-0.1,0.1-0.2,0.4-0.2c0.8,0,2.4,0.1,2.5,0.1c0.1,0,1.7-0.1,2.5-0.1
		c0.3,0,0.4,0.1,0.4,0.2c0,0.1-0.1,0.2-0.2,0.2c-0.2,0-0.3,0-0.6,0.1c-0.7,0.1-0.8,0.5-0.9,1.3c0,0.8,0,1.4,0,5.1V47.2z"/>
	<path class="st0" d="M187.2,47.2c0,2.3,0,4.2,0.1,5.2c0.1,0.7,0.2,1.1,1,1.3c0.3,0.1,0.9,0.1,1.1,0.1c0.2,0,0.2,0.1,0.2,0.2
		c0,0.1-0.1,0.2-0.4,0.2c-1.3,0-2.9-0.1-3.1-0.1c-0.1,0-1.8,0.1-2.5,0.1c-0.3,0-0.4-0.1-0.4-0.2c0-0.1,0.1-0.2,0.2-0.2
		c0.2,0,0.5-0.1,0.7-0.1c0.5-0.1,0.6-0.6,0.7-1.3c0.1-1,0.1-2.9,0.1-5.2v-10l-3.6,0.1c-1.5,0-2.1,0.2-2.5,0.8
		c-0.3,0.4-0.3,0.6-0.4,0.8c-0.1,0.2-0.1,0.2-0.3,0.2c-0.1,0-0.2-0.1-0.2-0.2c0-0.3,0.5-2.4,0.5-2.6c0.1-0.1,0.2-0.4,0.3-0.4
		c0.2,0,0.4,0.2,1.1,0.3c0.7,0.1,1.7,0.1,1.9,0.1h9.3c0.8,0,1.4-0.1,1.8-0.1c0.4-0.1,0.6-0.1,0.7-0.1c0.1,0,0.1,0.1,0.1,0.3
		c0,0.7-0.1,2.4-0.1,2.7c0,0.2-0.1,0.3-0.2,0.3c-0.1,0-0.2-0.1-0.2-0.4l0-0.3c-0.1-0.7-0.6-1.3-3-1.3l-3.1-0.1V47.2z"/>
	<path class="st0" d="M211.2,47.2c0,2.3,0,4.2,0.1,5.2c0.1,0.7,0.2,1.1,0.9,1.3c0.4,0.1,0.9,0.1,1.1,0.1c0.1,0,0.2,0.1,0.2,0.2
		c0,0.1-0.1,0.2-0.4,0.2c-1.4,0-3-0.1-3.1-0.1c-0.1,0-1.7,0.1-2.4,0.1c-0.3,0-0.4-0.1-0.4-0.2c0-0.1,0.1-0.2,0.2-0.2
		c0.2,0,0.5-0.1,0.8-0.1c0.5-0.1,0.6-0.6,0.6-1.3c0.1-1,0.1-2.9,0.1-5.2V43c0-3.7,0-4.4-0.1-5.1c-0.1-0.8-0.3-1.2-0.8-1.3
		c-0.3-0.1-0.6-0.1-0.8-0.1c-0.1,0-0.2-0.1-0.2-0.2c0-0.1,0.1-0.2,0.4-0.2c0.8,0,2.4,0.1,2.5,0.1c0.1,0,1.7-0.1,2.5-0.1
		c0.3,0,0.4,0.1,0.4,0.2c0,0.1-0.1,0.2-0.2,0.2c-0.2,0-0.3,0-0.6,0.1c-0.7,0.1-0.8,0.5-0.9,1.3c0,0.8,0,1.4,0,5.1V47.2z"/>
	<path class="st0" d="M229.4,43c0-3.7,0-4.4-0.1-5.1c-0.1-0.8-0.2-1.2-1-1.3c-0.2,0-0.6-0.1-0.8-0.1c-0.1,0-0.2-0.1-0.2-0.2
		c0-0.1,0.1-0.2,0.4-0.2c1.1,0,2.7,0.1,2.9,0.1c0.2,0,5.3,0,5.9,0c0.5,0,0.9-0.1,1.1-0.1c0.1,0,0.2-0.1,0.3-0.1
		c0.1,0,0.1,0.1,0.1,0.2c0,0.2-0.1,0.4-0.2,1.1c0,0.2-0.1,1.3-0.1,1.6c0,0.1-0.1,0.3-0.2,0.3c-0.1,0-0.2-0.1-0.2-0.3
		c0-0.2,0-0.6-0.1-0.8c-0.2-0.4-0.4-0.6-1.8-0.7c-0.4-0.1-3.3-0.1-3.6-0.1c-0.1,0-0.1,0.1-0.1,0.3v4.5c0,0.2,0,0.3,0.1,0.3
		c0.3,0,3.6,0,4.1-0.1c0.6-0.1,1-0.1,1.2-0.3c0.2-0.2,0.3-0.3,0.4-0.3c0.1,0,0.1,0.1,0.1,0.2c0,0.1-0.1,0.5-0.2,1.3
		c-0.1,0.5-0.1,1.4-0.1,1.5c0,0.2-0.1,0.4-0.2,0.4c-0.1,0-0.2-0.1-0.2-0.2c0-0.2,0-0.5-0.1-0.8c-0.1-0.3-0.3-0.6-1.3-0.7
		c-0.7-0.1-3.3-0.1-3.7-0.1c-0.1,0-0.2,0.1-0.2,0.2v2c0,0.8,0,5.6,0,6.1c0.1,1.6,0.5,1.9,2.9,1.9c0.6,0,1.8,0,2.5-0.3
		c0.6-0.3,1-0.7,1.1-1.7c0.1-0.3,0.1-0.4,0.3-0.4c0.1,0,0.2,0.2,0.2,0.4c0,0.2-0.2,1.8-0.3,2.3c-0.2,0.6-0.4,0.6-1.4,0.6
		c-1.8,0-3.3-0.1-4.3-0.1c-1-0.1-1.7-0.1-2-0.1c-0.1,0-0.5,0-1.1,0c-0.5,0-1,0.1-1.4,0.1c-0.3,0-0.4-0.1-0.4-0.2
		c0-0.1,0.1-0.2,0.2-0.2c0.2,0,0.5-0.1,0.8-0.1c0.5-0.1,0.5-0.6,0.6-1.3c0.1-1,0.1-2.9,0.1-5.2V43z"/>
	<path class="st0" d="M252.8,53.7c-0.3-0.2-0.4-0.3-0.4-0.9c0-1.2,0.1-2.1,0.1-2.5c0-0.3,0.1-0.4,0.2-0.4c0.1,0,0.2,0.1,0.2,0.3
		c0,0.2,0,0.5,0.1,0.9c0.4,1.7,2.2,2.4,3.9,2.4c2.4,0,3.7-1.4,3.7-3.2c0-1.7-0.9-2.5-3.1-4.1l-1.1-0.8c-2.7-2-3.5-3.4-3.5-5.1
		c0-2.8,2.2-4.5,5.5-4.5c1,0,2,0.1,2.5,0.3c0.5,0.1,0.7,0.1,0.9,0.1c0.2,0,0.3,0,0.3,0.2c0,0.1-0.1,0.9-0.1,2.5c0,0.4,0,0.5-0.2,0.5
		c-0.2,0-0.2-0.1-0.2-0.3c0-0.3-0.2-0.9-0.4-1.2c-0.2-0.3-1-1.2-3.2-1.2c-1.8,0-3.3,0.9-3.3,2.6c0,1.5,0.8,2.4,3.2,4l0.7,0.5
		c3,2,4,3.7,4,5.7c0,1.4-0.5,2.9-2.3,4.1c-1,0.7-2.6,0.8-3.9,0.8C255.2,54.4,253.8,54.2,252.8,53.7z"/>
	<path class="st0" d="M301,47.2c0,2.3,0,4.2,0.1,5.2c0.1,0.7,0.2,1.1,0.9,1.3c0.4,0.1,0.9,0.1,1.1,0.1c0.1,0,0.2,0.1,0.2,0.2
		c0,0.1-0.1,0.2-0.4,0.2c-1.4,0-3-0.1-3.1-0.1c-0.1,0-1.7,0.1-2.4,0.1c-0.3,0-0.4-0.1-0.4-0.2c0-0.1,0.1-0.2,0.2-0.2
		c0.2,0,0.5-0.1,0.8-0.1c0.5-0.1,0.6-0.6,0.6-1.3c0.1-1,0.1-2.9,0.1-5.2V43c0-3.7,0-4.4-0.1-5.1c-0.1-0.8-0.3-1.2-0.8-1.3
		c-0.3-0.1-0.6-0.1-0.8-0.1c-0.1,0-0.2-0.1-0.2-0.2c0-0.1,0.1-0.2,0.4-0.2c0.8,0,2.4,0.1,2.5,0.1c0.1,0,1.7-0.1,2.5-0.1
		c0.3,0,0.4,0.1,0.4,0.2c0,0.1-0.1,0.2-0.2,0.2c-0.2,0-0.3,0-0.6,0.1c-0.7,0.1-0.8,0.5-0.9,1.3c0,0.8,0,1.4,0,5.1V47.2z"/>
	<path class="st0" d="M320.3,50.8c0.1,2,0.3,2.5,1,2.7c0.4,0.1,1,0.1,1.2,0.1c0.1,0,0.2,0.1,0.2,0.2c0,0.1-0.2,0.2-0.4,0.2
		c-1.4,0-2.4-0.1-2.6-0.1c-0.2,0-1.3,0.1-2.4,0.1c-0.3,0-0.4,0-0.4-0.2c0-0.1,0.1-0.2,0.2-0.2c0.2,0,0.6,0,1-0.1
		c0.6-0.2,0.7-0.8,0.7-3V36.9c0-1,0.1-1.2,0.3-1.2c0.3,0,0.7,0.5,1,0.7c0.4,0.4,4,4.2,7.8,8.1c2.4,2.5,5.1,5.3,5.8,6.1l-0.3-11.9
		c0-1.5-0.2-2.1-0.9-2.2c-0.4-0.1-1-0.1-1.2-0.1c-0.2,0-0.2-0.1-0.2-0.2c0-0.1,0.2-0.2,0.5-0.2c1.1,0,2.3,0.1,2.6,0.1
		s1.1-0.1,2.1-0.1c0.3,0,0.4,0,0.4,0.2c0,0.1-0.1,0.2-0.3,0.2c-0.1,0-0.3,0-0.6,0.1c-0.8,0.2-0.9,0.6-0.9,2.1l-0.1,13.9
		c0,1.6,0,1.7-0.2,1.7c-0.3,0-0.5-0.2-1.9-1.5c-0.3-0.2-3.8-3.7-6.4-6.4c-2.9-3-5.6-5.9-6.4-6.7L320.3,50.8z"/>
	<path class="st0" d="M352.4,51.8c-2.4-2.1-3-4.8-3-7.1c0-1.6,0.6-4.4,2.8-6.5c1.5-1.4,3.7-2.5,7.5-2.5c1,0,2.4,0.1,3.6,0.3
		c0.9,0.2,1.7,0.3,2.5,0.4c0.3,0,0.3,0.1,0.3,0.3c0,0.2-0.1,0.5-0.1,1.3c0,0.8,0,2.1-0.1,2.4c0,0.4-0.1,0.5-0.3,0.5
		c-0.2,0-0.2-0.2-0.2-0.5c0-0.9-0.4-1.9-1-2.4c-0.9-0.7-2.7-1.3-4.8-1.3c-3.2,0-4.7,0.8-5.5,1.7c-1.8,1.7-2.2,3.8-2.2,6.2
		c0,4.6,3.6,8.6,8.9,8.6c1.8,0,3.1-0.1,4.1-1.1c0.5-0.5,0.9-1.5,1-2c0.1-0.3,0.1-0.3,0.3-0.3c0.1,0,0.2,0.2,0.2,0.3
		s-0.3,2.2-0.6,3.1c-0.1,0.4-0.2,0.5-0.6,0.7c-1,0.4-2.9,0.5-4.5,0.5C356.8,54.4,354.4,53.5,352.4,51.8z"/>
	<path class="st0" d="M369.7,52.5c0-0.6,0.4-1.5,1.5-1.5c0.9,0,1.5,0.6,1.5,1.5c0,0.9-0.6,1.6-1.6,1.6
		C370.1,54,369.7,53.2,369.7,52.5z"/>
</g>
<line class="st1" x1="0" y1="32.1" x2="392.9" y2="32.1"/>
</svg>
